<svg xmlns="http://www.w3.org/2000/svg" version="1.1" xmlns:xlink="http://www.w3.org/1999/xlink" xmlns:svgjs="http://svgjs.dev/svgjs" width="100" height="35" viewBox="0 0 1500 534">
    <g transform="matrix(1,0,0,1,-0.9090909090909918,-0.2601787370211923)">
        <svg viewBox="0 0 396 141" data-background-color="#243837" preserveAspectRatio="xMidYMid meet" height="534" width="1500" xmlns="http://www.w3.org/2000/svg" xmlns:xlink="http://www.w3.org/1999/xlink">
            <g id="tight-bounds" transform="matrix(1,0,0,1,0.2400000000000091,0.06869887999997104)">
                <svg viewBox="0 0 395.52 140.86260224000003" height="140.86260224000003" width="395.52">
                    <g>
                        <svg viewBox="0 0 395.52 140.86260224000003" height="140.86260224000003" width="395.52">
                            <g transform="matrix(1,0,0,1,0,87.05873931165111)">
                                <svg viewBox="0 0 395.52 53.80386292834892" height="53.80386292834892" width="395.52">
                                    <g id="textblocktransform">
                                        <svg viewBox="0 0 395.52 53.80386292834892" height="53.80386292834892" width="395.52" id="textblock">
                                            <g>
                                                <svg viewBox="0 0 395.52 53.80386292834892" height="53.80386292834892" width="395.52">
                                                    <g transform="matrix(1,0,0,1,0,0)">
                                                        <svg width="395.52" viewBox="1.05 -34.8 338.71999999999997 45.849999999999994" height="53.80386292834892" data-palette-color="#fe7833">
                                                            <path d="M2.3 10.95L2.3 10.95Q1.65 10.95 1.35 10.53 1.05 10.1 1.05 9.4L1.05 9.4Q1.05 8.35 1.2 7.1L1.2 7.1 4.9-23.55Q5.6-29.35 8.53-32.08 11.45-34.8 16.45-34.8L16.45-34.8Q18.75-34.8 19.73-34.08 20.7-33.35 20.7-31.9L20.7-31.9Q20.7-31.05 20.5-30.3 20.3-29.55 19.95-29.08 19.6-28.6 19.1-28.6L19.1-28.6Q18.7-28.6 17.9-29.23 17.1-29.85 16.05-30.45 15-31.05 13.75-31.05L13.75-31.05Q12.1-31.05 11.48-29.38 10.85-27.7 10.55-24.95L10.55-24.95 8.9-10.4Q8.55-7.45 8.3-4.42 8.05-1.4 7.8 1.2L7.8 1.2Q7.65 2.45 7.03 4.1 6.4 5.75 5.5 7.33 4.6 8.9 3.75 9.93 2.9 10.95 2.3 10.95ZM13.85-20.25L2.05-20.25Q1.7-20.25 1.55-20.5 1.4-20.75 1.5-21.1L1.5-21.1 1.85-22.05Q2.2-23.05 2.6-23.4 3-23.75 4.55-23.75L4.55-23.75 16.55-23.75Q17.2-23.75 16.95-22.95L16.95-22.95Q16.45-21.55 15.9-20.9 15.35-20.25 13.85-20.25L13.85-20.25ZM23.05 0.8L19.55 0.8Q18.7 0.8 18.45-0.18 18.2-1.15 18.2-2.2L18.2-2.2Q18.2-4 18.37-5.4 18.55-6.8 18.75-8.5L18.75-8.5 20.55-24.55 24.05-24.55Q25.05-24.55 25.35-23.45 25.65-22.35 25.65-20.95L25.65-20.95Q25.65-20.25 25.55-19.48 25.45-18.7 25.25-17.1L25.25-17.1 24.3-8.95Q24-6.35 23.75-4.6 23.5-2.85 23.35-1.6 23.2-0.35 23.05 0.8L23.05 0.8ZM23.95-27.4L23.95-27.4Q22.55-27.4 21.52-28.35 20.5-29.3 20.5-30.85L20.5-30.85Q20.5-32.7 21.7-33.73 22.9-34.75 24.45-34.75L24.45-34.75Q25.9-34.75 26.87-33.9 27.85-33.05 27.85-31.35L27.85-31.35Q27.85-29.65 26.7-28.53 25.55-27.4 23.95-27.4ZM36.05 0.8L36.05 0.8Q32.25 0.8 30.07-0.38 27.89-1.55 27.89-3.55L27.89-3.55Q27.89-4.45 28.17-5.23 28.45-6 29-6L29-6Q29.2-6 29.45-5.9 29.7-5.8 30.4-5.35L30.4-5.35Q31.4-4.7 32.62-4.15 33.84-3.6 35.12-3.28 36.4-2.95 37.5-2.95L37.5-2.95Q39.09-2.95 39.82-3.73 40.55-4.5 40.55-5.8L40.55-5.8Q40.55-6.75 39.97-7.38 39.4-8 38.15-8.8L38.15-8.8 35.05-10.8Q33.09-12.05 31.77-13.48 30.45-14.9 30.45-17.2L30.45-17.2Q30.45-20.45 32.95-22.48 35.45-24.5 40-24.5L40-24.5Q43.2-24.5 44.7-23.85 46.2-23.2 46.2-21.6L46.2-21.6Q46.2-20.35 45.82-19.5 45.45-18.65 44.8-18.65L44.8-18.65Q44.59-18.65 44.27-18.75 43.95-18.85 43.7-19L43.7-19Q43.3-19.25 42.45-19.7 41.59-20.15 40.55-20.53 39.5-20.9 38.34-20.9L38.34-20.9Q37.2-20.9 36.47-20.23 35.75-19.55 35.75-18.4L35.75-18.4Q35.75-17.45 36.34-16.8 36.95-16.15 38.34-15.45L38.34-15.45 41.59-13.95Q43.65-13 44.92-11.73 46.2-10.45 46.2-7.95L46.2-7.95Q46.2-5 44.77-3.05 43.34-1.1 41.02-0.15 38.7 0.8 36.05 0.8ZM69.39 0.5L65.74 0.5Q65.34 0.5 65.07-0.03 64.79-0.55 64.69-1.2 64.59-1.85 64.59-2.25L64.59-2.25Q64.59-2.95 64.69-4.05 64.79-5.15 64.94-6.38 65.09-7.6 65.24-8.5L65.24-8.5 66.09-13.7Q66.24-14.7 66.39-15.58 66.54-16.45 66.54-17.45L66.54-17.45Q66.54-18.2 66.24-18.6 65.94-19 65.44-19L65.44-19Q64.79-19 63.32-17.78 61.84-16.55 60.17-14.25 58.49-11.95 57.12-8.68 55.74-5.4 55.34-1.25L55.34-1.25 54.09-8.75Q56.14-14.55 58.69-18 61.24-21.45 63.74-22.98 66.24-24.5 68.14-24.5L68.14-24.5Q70.34-24.5 71.34-23.23 72.34-21.95 72.34-19.95L72.34-19.95Q72.34-18.85 72.17-17.65 71.99-16.45 71.79-15.15L71.79-15.15 69.39 0.5ZM50.89 0.7L50.89 0.7Q50.24 0.7 49.92 0.43 49.59 0.15 49.59-0.8 49.59-1.75 49.79-3.75L49.79-3.75 51.94-23.45Q52.24-26.3 52.69-29.13 53.14-31.95 53.29-34.8L53.29-34.8 56.79-34.8Q57.79-34.8 58.27-33.45 58.74-32.1 58.74-30.7L58.74-30.7Q58.74-29.6 58.64-28.73 58.54-27.85 58.34-26.9 58.14-25.95 57.79-24.5L57.79-24.5 54.59-9.85 56.24-11.9Q55.89-8.7 55.69-5.85 55.49-3 55.34-1.25L55.34-1.25Q55.34-0.75 54.47-0.3 53.59 0.15 52.54 0.43 51.49 0.7 50.89 0.7ZM81.29 0.8L77.79 0.8Q76.94 0.8 76.69-0.18 76.44-1.15 76.44-2.2L76.44-2.2Q76.44-4 76.62-5.4 76.79-6.8 76.99-8.5L76.99-8.5 78.79-24.55 82.29-24.55Q83.29-24.55 83.59-23.45 83.89-22.35 83.89-20.95L83.89-20.95Q83.89-20.25 83.79-19.48 83.69-18.7 83.49-17.1L83.49-17.1 82.54-8.95Q82.24-6.35 81.99-4.6 81.74-2.85 81.59-1.6 81.44-0.35 81.29 0.8L81.29 0.8ZM82.19-27.4L82.19-27.4Q80.79-27.4 79.77-28.35 78.74-29.3 78.74-30.85L78.74-30.85Q78.74-32.7 79.94-33.73 81.14-34.75 82.69-34.75L82.69-34.75Q84.14-34.75 85.12-33.9 86.09-33.05 86.09-31.35L86.09-31.35Q86.09-29.65 84.94-28.53 83.79-27.4 82.19-27.4ZM107.64 0.5L104.09 0.5Q103.54 0.5 103.26-0.03 102.99-0.55 102.91-1.2 102.84-1.85 102.84-2.25L102.84-2.25Q102.84-2.95 102.94-4.05 103.04-5.15 103.19-6.38 103.34-7.6 103.49-8.5L103.49-8.5 104.34-13.7Q104.49-14.7 104.64-15.58 104.79-16.45 104.79-17.45L104.79-17.45Q104.79-18.2 104.49-18.6 104.19-19 103.69-19L103.69-19Q103.04-19 101.54-17.75 100.04-16.5 98.34-14.18 96.64-11.85 95.26-8.6 93.89-5.35 93.49-1.35L93.49-1.35 92.19-8.75Q93.69-13.1 95.56-16.1 97.44-19.1 99.39-20.95 101.34-22.8 103.16-23.65 104.99-24.5 106.39-24.5L106.39-24.5Q107.89-24.5 108.81-23.95 109.74-23.4 110.16-22.43 110.59-21.45 110.59-20.15L110.59-20.15Q110.59-18.9 110.41-17.68 110.24-16.45 110.04-15.15L110.04-15.15 107.64 0.5ZM89.14 0.7L89.14 0.7Q88.49 0.7 88.16 0.48 87.84 0.25 87.81-0.7 87.79-1.65 88.04-3.75L88.04-3.75 90.39-24.55 93.89-24.55Q94.64-24.55 95.24-23.45 95.84-22.35 95.84-20.95L95.84-20.95Q95.84-20.3 95.46-18.93 95.09-17.55 94.59-16.03 94.09-14.5 93.69-13.35L93.69-13.35 92.39-9.25 94.24-9.55 93.44-1.35Q93.39-0.85 92.84-0.45 92.29-0.05 91.54 0.2 90.79 0.45 90.11 0.58 89.44 0.7 89.14 0.7ZM122.24 11.05L122.24 11.05Q119.84 11.05 117.86 10.33 115.89 9.6 114.71 8.05 113.54 6.5 113.54 4L113.54 4Q113.54 3.15 114.09 3.15L114.09 3.15Q114.34 3.15 114.74 3.35 115.14 3.55 115.79 3.9L115.79 3.9Q116.69 4.4 118.21 5.18 119.74 5.95 121.39 6.55 123.04 7.15 124.29 7.15L124.29 7.15Q125.09 7.15 125.81 6.8 126.54 6.45 127.21 5.48 127.89 4.5 128.49 2.68 129.09 0.85 129.64-2.1L129.64-2.1 132.14-15.65 131.24-16.85 131.29-23.25Q134.49-23.65 135.94-24.05 137.39-24.45 137.94-24.45L137.94-24.45Q138.44-24.45 138.44-23.85L138.44-23.85Q138.44-23.6 137.81-21.75 137.19-19.9 136.49-17 135.79-14.1 135.64-10.5L135.64-10.5 135.29-1.5Q135.14 2 133.91 4.4 132.69 6.8 130.74 8.28 128.79 9.75 126.56 10.4 124.34 11.05 122.24 11.05ZM119.09 0.45L119.09 0.45Q116.29 0.45 115.09-1.83 113.89-4.1 113.89-8.2L113.89-8.2Q113.89-11.65 114.94-14.63 115.99-17.6 117.81-19.8 119.64-22 122.06-23.25 124.49-24.5 127.24-24.5L127.24-24.5Q129.39-24.5 131.16-23.93 132.94-23.35 134.19-22.75L134.19-22.75 132.74-17.5Q131.39-18.4 129.71-19.15 128.04-19.9 126.61-20.33 125.19-20.75 124.49-20.75L124.49-20.75Q123.09-20.75 121.96-19.35 120.84-17.95 120.19-15.6 119.54-13.25 119.54-10.35L119.54-10.35Q119.54-7.45 119.96-5.95 120.39-4.45 121.34-4.45L121.34-4.45Q121.99-4.45 123.51-5.85 125.04-7.25 127.19-10.6 129.34-13.95 131.79-19.85L131.79-19.85 133.19-15.4Q130.49-9.4 128.06-5.93 125.64-2.45 123.44-1 121.24 0.45 119.09 0.45ZM157.58 0.8L157.58 0.8Q154.78 0.8 153.58-1.48 152.38-3.75 152.38-7.85L152.38-7.85Q152.38-11.5 153.46-14.55 154.53-17.6 156.38-19.83 158.23-22.05 160.68-23.28 163.13-24.5 165.88-24.5L165.88-24.5Q168.03-24.5 169.81-23.93 171.58-23.35 172.83-22.75L172.83-22.75 171.38-17.5Q170.03-18.4 168.36-19.15 166.68-19.9 165.26-20.33 163.83-20.75 163.13-20.75L163.13-20.75Q161.73-20.75 160.56-19.38 159.38-18 158.71-15.58 158.03-13.15 158.03-10L158.03-10Q158.03-7.1 158.46-5.6 158.88-4.1 159.83-4.1L159.83-4.1Q160.48-4.1 162.03-5.58 163.58-7.05 165.78-10.5 167.98-13.95 170.43-19.85L170.43-19.85 171.83-15.4Q169.13-9.4 166.68-5.85 164.23-2.3 161.98-0.75 159.73 0.8 157.58 0.8ZM173.03 0.5L169.53 0.5Q168.53 0.5 168.33-0.48 168.13-1.45 168.13-2.55L168.13-2.55Q168.13-3.4 168.36-4.65 168.58-5.9 168.93-7.35 169.28-8.8 169.68-10.2L169.68-10.2 170.78-13.95 169.33-15.25 170.53-22.8Q172.13-23.05 173.36-23.45 174.58-23.85 175.41-24.15 176.23-24.45 176.58-24.45L176.58-24.45Q177.13-24.45 177.13-23.85L177.13-23.85Q177.13-23.6 176.51-21.73 175.88-19.85 175.16-16.95 174.43-14.05 174.08-10.65L174.08-10.65 173.03 0.5ZM187.08 0.8L187.08 0.8Q183.13 0.8 181.03-1.65 178.93-4.1 178.93-8.7L178.93-8.7Q178.93-13.2 180.7-16.8 182.48-20.4 185.55-22.48 188.63-24.55 192.58-24.55L192.58-24.55Q194.68-24.55 196.28-24 197.88-23.45 197.88-21.7L197.88-21.7Q197.88-20.95 197.63-20.2 197.38-19.45 196.98-18.95 196.58-18.45 196.18-18.45L196.18-18.45Q195.98-18.45 195.63-18.57 195.28-18.7 195.03-18.85L195.03-18.85Q194.48-19.2 193.7-19.65 192.93-20.1 192-20.45 191.08-20.8 190.08-20.8L190.08-20.8Q188.53-20.8 187.3-19.35 186.08-17.9 185.38-15.5 184.68-13.1 184.68-10.3L184.68-10.3Q184.68-6.6 185.8-5.38 186.93-4.15 189.08-4.15L189.08-4.15Q190.88-4.15 192.13-4.78 193.38-5.4 194.53-6.2L194.53-6.2Q194.98-6.5 195.23-6.58 195.48-6.65 195.68-6.65L195.68-6.65Q195.93-6.65 196.08-6.45 196.23-6.25 196.23-6L196.23-6Q196.23-5.1 195.48-3.93 194.73-2.75 193.43-1.68 192.13-0.6 190.5 0.1 188.88 0.8 187.08 0.8ZM204.03 0.8L204.03 0.8Q201.23 0.8 200.03-1.48 198.83-3.75 198.83-7.85L198.83-7.85Q198.83-11.5 199.9-14.55 200.98-17.6 202.83-19.83 204.68-22.05 207.13-23.28 209.58-24.5 212.33-24.5L212.33-24.5Q214.48-24.5 216.25-23.93 218.03-23.35 219.28-22.75L219.28-22.75 217.83-17.5Q216.48-18.4 214.8-19.15 213.13-19.9 211.7-20.33 210.28-20.75 209.58-20.75L209.58-20.75Q208.18-20.75 207-19.38 205.83-18 205.15-15.58 204.48-13.15 204.48-10L204.48-10Q204.48-7.1 204.9-5.6 205.33-4.1 206.28-4.1L206.28-4.1Q206.93-4.1 208.48-5.58 210.03-7.05 212.23-10.5 214.43-13.95 216.88-19.85L216.88-19.85 218.28-15.4Q215.58-9.4 213.13-5.85 210.68-2.3 208.43-0.75 206.18 0.8 204.03 0.8ZM219.48 0.5L215.98 0.5Q214.98 0.5 214.78-0.48 214.58-1.45 214.58-2.55L214.58-2.55Q214.58-3.4 214.8-4.65 215.03-5.9 215.38-7.35 215.73-8.8 216.13-10.2L216.13-10.2 217.23-13.95 215.78-15.25 216.98-22.8Q218.58-23.05 219.8-23.45 221.03-23.85 221.85-24.15 222.68-24.45 223.03-24.45L223.03-24.45Q223.58-24.45 223.58-23.85L223.58-23.85Q223.58-23.6 222.95-21.73 222.33-19.85 221.6-16.95 220.88-14.05 220.53-10.65L220.53-10.65 219.48 0.5ZM230.57 0.8L230.57 0.8Q227.87 0.8 226.7-1.4 225.52-3.6 225.52-7.85L225.52-7.85Q225.52-11.5 226.55-14.55 227.57-17.6 229.42-19.83 231.27-22.05 233.72-23.28 236.17-24.5 239.02-24.5L239.02-24.5Q240.77-24.5 242.5-23.93 244.22-23.35 245.47-22.75L245.47-22.75 243.87-17.85Q242.52-18.75 241.05-19.4 239.57-20.05 238.35-20.4 237.12-20.75 236.47-20.75L236.47-20.75Q235.02-20.75 233.82-19.38 232.62-18 231.9-15.58 231.17-13.15 231.17-10L231.17-10Q231.17-7.1 231.6-5.6 232.02-4.1 232.97-4.1L232.97-4.1Q233.77-4.1 235.45-5.58 237.12-7.05 239.35-10.5 241.57-13.95 244.02-19.85L244.02-19.85 245.47-15.4Q242.82-9.4 240.22-5.85 237.62-2.3 235.2-0.75 232.77 0.8 230.57 0.8ZM247.27 0.5L243.77 0.5Q243.22 0.5 242.82-0.13 242.42-0.75 242.22-1.65 242.02-2.55 242.02-3.3L242.02-3.3Q242.02-4.55 242.45-6.15 242.87-7.75 243.52-10.2L243.52-10.2 244.52-13.95 243.07-15.55 243.62-20.8 244.32-21.65 244.72-34.8 248.62-34.8Q249.37-34.8 249.85-34.15 250.32-33.5 250.55-32.63 250.77-31.75 250.77-30.95L250.77-30.95Q250.77-30.45 250.72-29.83 250.67-29.2 250.52-28.13 250.37-27.05 250.07-25.15L250.07-25.15 248.42-13.65Q248.07-11.25 247.82-8.75 247.57-6.25 247.45-3.9 247.32-1.55 247.27 0.5L247.27 0.5ZM260.92 0.8L260.92 0.8Q257.07 0.8 254.97-1.63 252.87-4.05 252.87-8.3L252.87-8.3Q252.87-11.85 253.87-14.8 254.87-17.75 256.67-19.95 258.47-22.15 260.9-23.35 263.32-24.55 266.17-24.55L266.17-24.55Q269.57-24.55 271.37-23.1 273.17-21.65 273.17-18.95L273.17-18.95Q273.17-16.2 271.35-14.15 269.52-12.1 266.1-10.65 262.67-9.2 257.92-8.2L257.92-8.2 257.27-11.2Q260.02-11.55 262.32-12.4 264.62-13.25 266.02-14.68 267.42-16.1 267.42-18.05L267.42-18.05Q267.42-19.4 266.9-20.1 266.37-20.8 265.02-20.8L265.02-20.8Q262.97-20.8 261.55-19.3 260.12-17.8 259.4-15.4 258.67-13 258.67-10.3L258.67-10.3Q258.67-6.65 259.8-5.43 260.92-4.2 263.12-4.2L263.12-4.2Q265.42-4.2 267.15-4.93 268.87-5.65 270.12-6.45L270.12-6.45Q270.52-6.7 270.82-6.85 271.12-7 271.32-7L271.32-7Q271.57-7 271.72-6.8 271.87-6.6 271.87-6.35L271.87-6.35Q271.87-5.45 271.07-4.25 270.27-3.05 268.8-1.9 267.32-0.75 265.32 0.03 263.32 0.8 260.92 0.8ZM310.47 0.5L306.82 0.5Q306.27 0.5 306.02-0.03 305.77-0.55 305.72-1.2 305.67-1.85 305.67-2.25L305.67-2.25Q305.67-2.95 305.77-4.05 305.87-5.15 306.02-6.38 306.17-7.6 306.32-8.5L306.32-8.5 307.17-13.7Q307.32-14.7 307.47-15.58 307.62-16.45 307.62-17.45L307.62-17.45Q307.62-18.2 307.32-18.6 307.02-19 306.52-19L306.52-19Q305.87-19 304.37-17.75 302.87-16.5 301.17-14.2 299.47-11.9 298.07-8.65 296.67-5.4 296.27-1.4L296.27-1.4 295.17-8.75Q297.22-14.55 299.74-18 302.27-21.45 304.77-22.98 307.27-24.5 309.12-24.5L309.12-24.5Q310.67-24.5 311.59-23.95 312.52-23.4 312.97-22.35 313.42-21.3 313.42-19.85L313.42-19.85Q313.42-18.8 313.24-17.63 313.07-16.45 312.87-15.15L312.87-15.15 310.47 0.5ZM277.12 0.7L277.12 0.7Q276.47 0.7 276.14 0.48 275.82 0.25 275.79-0.7 275.77-1.65 276.02-3.75L276.02-3.75 278.37-24.55 281.87-24.55Q282.87-24.55 283.34-23.45 283.82-22.35 283.82-20.95L283.82-20.95Q283.82-20.3 283.44-18.93 283.07-17.55 282.57-16.03 282.07-14.5 281.67-13.35L281.67-13.35 280.37-9.25 282.22-9.55 281.37-1.4Q281.32-0.9 280.79-0.5 280.27-0.1 279.57 0.18 278.87 0.45 278.19 0.58 277.52 0.7 277.12 0.7ZM291.87 0.7L291.87 0.7Q290.97 0.7 290.77 0.35 290.57 0 290.57-0.85L290.57-0.85Q290.57-1.6 290.74-3.3 290.92-5 291.52-8.5L291.52-8.5 292.42-13.65Q292.62-14.65 292.74-15.63 292.87-16.6 292.87-17.6L292.87-17.6Q292.87-18.3 292.62-18.65 292.37-19 291.82-19L291.82-19Q291.12-19 289.57-17.75 288.02-16.5 286.29-14.2 284.57-11.9 283.17-8.65 281.77-5.4 281.37-1.4L281.37-1.4 280.17-8.75Q281.67-13.1 283.57-16.1 285.47-19.1 287.42-20.95 289.37-22.8 291.14-23.65 292.92-24.5 294.22-24.5L294.22-24.5Q295.87-24.5 296.79-23.9 297.72-23.3 298.09-22.33 298.47-21.35 298.47-20.3L298.47-20.3Q298.47-19.05 298.07-17.7 297.67-16.35 296.99-14.43 296.32-12.5 295.52-9.5L295.52-9.5 297.17-10.1 296.27-1.4Q296.22-0.9 295.72-0.5 295.22-0.1 294.49 0.15 293.77 0.4 293.04 0.55 292.32 0.7 291.87 0.7ZM323.92 11.05L323.92 11.05Q321.77 11.05 320.12 10.38 318.47 9.7 317.52 8.2 316.57 6.7 316.57 4.2L316.57 4.2Q316.57 3.7 316.74 3.53 316.92 3.35 317.12 3.35L317.12 3.35Q317.37 3.35 317.72 3.55 318.07 3.75 318.72 4.15L318.72 4.15Q319.62 4.75 320.79 5.43 321.97 6.1 323.32 6.6 324.67 7.1 325.97 7.1L325.97 7.1Q327.27 7.1 328.37 6.28 329.47 5.45 330.44 3.4 331.42 1.35 332.32-2.25L332.32-2.25 335.12-13.65 335.42-13.7Q333.57-8.8 331.14-5.63 328.72-2.45 326.24-0.93 323.77 0.6 321.77 0.6L321.77 0.6Q319.67 0.6 318.67-0.55 317.67-1.7 317.67-3.75L317.67-3.75Q317.67-4.75 317.79-5.95 317.92-7.15 318.22-9.7L318.22-9.7 320.07-24.55 323.57-24.55Q324.42-24.55 324.87-23.58 325.32-22.6 325.32-21.2L325.32-21.2Q325.32-20.2 325.22-19.43 325.12-18.65 324.94-17.68 324.77-16.7 324.47-14.9L324.47-14.9 323.77-10.6Q323.57-9.2 323.44-8.13 323.32-7.05 323.32-6.35L323.32-6.35Q323.32-5.3 323.54-4.78 323.77-4.25 324.57-4.25L324.57-4.25Q325.42-4.25 326.54-5.35 327.67-6.45 328.87-8.2 330.07-9.95 331.09-11.95 332.12-13.95 332.77-15.83 333.42-17.7 333.42-18.95L333.42-18.95Q333.42-19.8 333.27-20.78 333.12-21.75 333.12-22.5L333.12-22.5Q333.12-23.1 334.09-23.58 335.07-24.05 336.29-24.3 337.52-24.55 338.22-24.55L338.22-24.55Q338.92-24.55 339.34-23.9 339.77-23.25 339.77-21.45L339.77-21.45Q339.77-20.6 339.49-18.93 339.22-17.25 339.12-15.8L339.12-15.8 337.87-1.5Q337.57 1.75 336.24 4.13 334.92 6.5 332.92 8.03 330.92 9.55 328.57 10.3 326.22 11.05 323.92 11.05Z" opacity="1" transform="matrix(1,0,0,1,0,0)" fill="#fe7833" class="wordmark-text-0" data-fill-palette-color="primary" id="text-0"></path>
                                                        </svg>
                                                    </g>
                                                </svg>
                                            </g>
                                        </svg>
                                    </g>
                                </svg>
                            </g>
                            <g transform="matrix(1,0,0,1,142.6537199522067,0)">
                                <svg viewBox="0 0 110.21256009558657 74.35693856697822" height="74.35693856697822" width="110.21256009558657">
                                    <g>
                                        <svg xmlns="http://www.w3.org/2000/svg" xmlns:xlink="http://www.w3.org/1999/xlink" version="1.1" x="0" y="0" viewBox="5.346285468033225 14.158 86.91118808662065 58.63623771859672" enable-background="new 0 0 100 100" xml:space="preserve" height="74.35693856697822" width="110.21256009558657" class="icon-icon-0" data-fill-palette-color="accent" id="icon-0"><g fill="#fe7833" data-fill-palette-color="accent"><g fill="#fe7833" data-fill-palette-color="accent"><g fill="#fe7833" data-fill-palette-color="accent"><path fill-rule="evenodd" clip-rule="evenodd" d="M91.51 52.824A6.7 6.7 0 0 1 91.236 51.691C91.076 51.036 90.918 50.379 90.765 49.719 90.761 49.71 90.76 49.702 90.757 49.694 90.725 49.633 90.683 49.576 90.655 49.511 90.647 49.494 90.659 49.479 90.651 49.462 90.619 49.401 90.584 49.344 90.558 49.28 90.487 49.187 90.425 49.094 90.335 49.005 90.05 48.796 89.677 48.647 89.158 48.552 88.34 48.405 87.554 48.577 86.762 48.751 85.609 49.004 84.508 49.406 83.401 49.808 83.368 49.827 83.328 49.836 83.293 49.855A4 4 0 0 1 82.897 50.025C82.65 50.14 82.405 50.271 82.145 50.351 81.342 50.783 80.48 51.033 79.585 51.354 79.02 51.558 78.426 51.731 77.828 51.884 77.802 51.894 77.799 51.92 77.767 51.924 77.704 51.936 77.642 51.951 77.579 51.963A10 10 0 0 1 76.248 52.371 2.4 2.4 0 0 1 75.735 52.508C75.673 52.528 75.614 52.551 75.551 52.561A18.7 18.7 0 0 1 70.021 52.725C69.123 52.619 68.226 52.489 67.327 52.37 68.344 52.067 69.352 51.901 70.354 51.709A3.14 3.14 0 0 0 72.391 50.381C72.555 50.148 72.65 49.915 72.49 49.635 72.129 49 71.798 48.352 71.388 47.739 70.798 46.849 69.979 46.192 69.288 45.412 68.459 44.48 67.482 43.764 66.339 43.338 64.702 42.73 63.151 43.013 61.788 44.11 59.969 45.57 57.682 46.263 55.87 47.734 55.656 47.909 55.251 48.01 55.168 47.713 54.888 46.703 54.262 47.065 53.679 47.273 53.258 47.423 52.91 47.417 52.658 47.009A3 3 0 0 1 52.464 46.638 1.6 1.6 0 0 1 52.298 46.3C52.291 46.282 52.305 46.272 52.3 46.253A0.4 0.4 0 0 1 52.31 46.095C52.323 46.032 52.332 45.977 52.374 45.931 52.385 45.916 52.381 45.894 52.395 45.88 52.414 45.833 52.422 45.776 52.442 45.732 51.944 45.818 51.784 45.555 51.673 45.195 51.54 44.765 51.519 44.332 51.547 43.89 51.563 43.666 51.568 43.349 51.234 43.5A1.3 1.3 0 0 1 50.837 43.598C50.246 43.738 49.659 43.772 49.004 43.481 48.732 43.361 48.739 43.101 48.872 42.912 48.879 42.89 48.875 42.876 48.882 42.855 49.019 42.397 49.248 41.987 49.504 41.541 49.06 41.502 48.867 41.801 48.627 41.978 47.703 42.664 46.786 42.309 46.562 41.165 46.519 40.944 46.64 40.607 46.306 40.555 46.017 40.51 45.825 40.764 45.652 40.969 44.394 42.465 43.175 43.99 42.371 45.799 42.277 46.012 42.219 46.267 41.948 46.41 41.704 46.189 41.559 45.905 41.456 45.571 41.449 45.573 41.446 45.575 41.441 45.575 41.331 45.765 41.19 45.911 41.024 46.032 40.787 46.302 40.494 46.507 40.196 46.728 40.027 46.886 39.866 47.052 39.764 47.265 39.629 47.541 39.277 47.558 38.985 47.604A86 86 0 0 0 34.727 48.341C31.102 49.09 27.815 50.582 24.786 52.691 22.446 54.321 19.94 55.625 17.15 56.323 16.341 56.526 15.544 56.773 14.85 57.255 14.643 57.398 14.462 57.582 14.272 57.75 14.264 57.761 14.271 57.774 14.259 57.786 13.44 58.692 14.767 60.05 15.359 60.796 15.447 60.873 15.521 60.961 15.604 61.041L15.655 61.079C16.156 61.43 16.666 61.769 17.225 62.028 17.953 62.365 18.664 62.742 19.397 63.068 19.488 63.109 19.578 63.153 19.667 63.195 19.672 63.196 19.677 63.191 19.683 63.195 19.815 63.258 19.952 63.309 20.088 63.363 20.2 63.406 20.315 63.446 20.429 63.489 20.611 63.538 20.794 63.583 20.975 63.644 22.549 64.04 24.097 64.534 25.667 64.953 25.675 64.954 25.678 64.962 25.684 64.966 25.763 64.987 25.848 65.021 25.926 65.053 26 65.072 26.074 65.087 26.147 65.111 28.425 65.849 30.729 66.502 33.13 66.729 33.876 66.8 34.577 66.899 35.121 67.598 35.433 68 35.865 68.365 36.227 68.753 37.479 70.102 39.151 70.864 40.607 71.925 41.195 72.35 41.867 72.753 42.611 72.785 44.097 72.85 44.526 72.592 44.364 71.368 44.222 70.304 44.452 69.252 44.435 68.191 44.419 67.278 44.285 67.022 43.427 66.753 43.197 66.681 42.959 66.635 42.726 66.577 43.586 66.391 44.398 66.723 45.257 66.72 48.264 66.706 51.265 66.524 54.265 66.47 57.516 66.413 60.837 65.863 64.02 67.232 63.966 66.457 64.11 66.339 64.871 66.457 66.755 66.744 68.639 67.021 70.518 67.333 71.179 67.443 71.825 67.446 72.483 67.332 73.915 67.082 74.564 66.501 74.587 65.063 74.599 64.301 74.292 63.528 74.072 62.774 73.987 62.492 73.665 62.365 73.38 62.275 72.466 61.986 71.612 61.494 70.606 61.47 72.838 60.698 75.068 59.96 77.446 60.742 79.627 61.461 81.789 62.236 83.967 62.961 85.708 63.538 87.457 64.078 89.344 63.934 90.2 63.868 90.822 63.528 91.231 62.98A0.8 0.8 0 0 1 91.344 62.772C91.452 62.49 91.562 62.207 91.682 61.924L91.704 61.83 91.718 61.806 91.72 61.797C91.72 61.79 91.728 61.79 91.728 61.783 91.73 61.78 91.732 61.778 91.732 61.775 91.757 61.583 91.822 61.395 91.857 61.203 91.912 60.902 91.992 60.607 92.072 60.313V60.31C92.093 60.166 92.115 60.02 92.145 59.874 92.463 57.502 92.061 55.172 91.51 52.824M20.041 58.426C18.905 58.426 18.905 56.664 20.041 56.664S21.177 58.426 20.041 58.426" fill="#fe7833" data-fill-palette-color="accent"></path></g></g><g fill="#fe7833" data-fill-palette-color="accent"><path d="M7.186 59.202A1.84 1.84 0 0 1 5.465 58.027C5.073 57.044 5.747 56.406 6.109 56.064 6.956 55.26 6.907 54.465 6.905 54.431L7.303 54.399C7.306 54.44 7.377 55.412 6.405 56.335 6.03 56.689 5.545 57.148 5.836 57.879 6.119 58.585 6.861 58.947 7.603 58.745 8.132 58.599 8.421 58.266 8.489 57.725L8.885 57.774C8.798 58.473 8.391 58.942 7.709 59.129 7.534 59.179 7.358 59.202 7.186 59.202" fill="#fe7833" data-fill-palette-color="accent"></path></g><g fill="#fe7833" data-fill-palette-color="accent"><path fill-rule="evenodd" clip-rule="evenodd" d="M8.875 57.83C8.912 57.566 8.888 57.264 8.9 56.998L8.902 56.982A0.2 0.2 0 0 1 8.9 56.928C8.899 56.925 8.897 56.923 8.897 56.917 8.904 56.81 8.894 56.7 8.893 56.592 8.631 56.968 8.291 57.259 7.852 57.398A0.9 0.9 0 0 0 8.412 57.561C8.498 57.56 8.499 57.781 8.495 57.865" fill="#fe7833" data-fill-palette-color="accent"></path></g><g fill="#fe7833" data-fill-palette-color="accent"><path d="M7.099 54.521A0.562 0.562 0 1 1 7.102 53.396 0.562 0.562 0 0 1 7.1 54.521M7.101 53.646A0.31 0.31 0 0 0 6.844 53.78 0.3 0.3 0 0 0 6.793 54.013 0.307 0.307 0 0 0 7.156 54.265 0.311 0.311 0 0 0 7.101 53.646" fill="#fe7833" data-fill-palette-color="accent"></path></g><g fill="#fe7833" data-fill-palette-color="accent"><path d="M7.13 53.659A0.175 0.175 0 0 1 6.955 53.484V14.333C6.955 14.236 7.033 14.158 7.13 14.158S7.305 14.236 7.305 14.333V53.484A0.175 0.175 0 0 1 7.13 53.659" fill="#fe7833" data-fill-palette-color="accent"></path></g></g></svg>
                                    </g>
                                </svg>
                            </g>
                            <g></g>
                        </svg>
                    </g>
                    <defs></defs>
                </svg>
                <rect width="395.52" height="140.86260224000003" fill="none" stroke="none" visibility="hidden"></rect>
            </g>
        </svg>
    </g>
</svg>